<svg width="10" height="10" viewBox="0 0 10 10" fill="none" xmlns="http://www.w3.org/2000/svg">
<circle cx="5" cy="5" r="5" fill="white"/>
<path d="M5 0C4.0111 0 3.0444 0.293245 2.22215 0.842652C1.39991 1.39206 0.759043 2.17295 0.380605 3.08658C0.00216642 4.00021 -0.0968503 5.00555 0.0960758 5.97545C0.289002 6.94536 0.765206 7.83627 1.46447 8.53553C2.16373 9.2348 3.05465 9.711 4.02455 9.90393C4.99446 10.0969 5.99979 9.99784 6.91342 9.6194C7.82705 9.24096 8.60794 8.6001 9.15735 7.77785C9.70676 6.95561 10 5.98891 10 5C9.99868 3.67432 9.47147 2.40332 8.53407 1.46593C7.59668 0.528533 6.32568 0.00132369 5 0ZM7.9695 3.8565V4.1795C7.96951 4.20422 7.96457 4.22869 7.95496 4.25147C7.94535 4.27425 7.93127 4.29487 7.91356 4.31211C7.89585 4.32936 7.87486 4.34288 7.85184 4.35188C7.82881 4.36088 7.80421 4.36517 7.7795 4.3645C7.25158 4.3272 6.74652 4.13443 6.328 3.8105V6.1745C6.32789 6.43614 6.27565 6.69513 6.17435 6.93636C6.07305 7.17759 5.92472 7.39622 5.738 7.5795C5.54976 7.76757 5.32587 7.91618 5.07946 8.01663C4.83306 8.11708 4.56908 8.16736 4.303 8.1645C3.76794 8.16372 3.25438 7.95378 2.872 7.5795C2.6287 7.3342 2.45345 7.02978 2.3635 6.6962C2.27355 6.36262 2.272 6.01136 2.359 5.677C2.4385 5.356 2.599 5.061 2.8255 4.8205C2.99442 4.61404 3.20734 4.44795 3.4487 4.33436C3.69006 4.22078 3.95375 4.16257 4.2205 4.164H4.6305V5.0155C4.63068 5.04023 4.62559 5.06471 4.61556 5.08732C4.60554 5.10993 4.59081 5.13014 4.57235 5.1466C4.5539 5.16307 4.53215 5.17541 4.50855 5.18281C4.48496 5.1902 4.46005 5.19249 4.4355 5.1895C4.19745 5.118 3.94093 5.14171 3.72002 5.25565C3.49911 5.36959 3.33107 5.56485 3.25132 5.80028C3.17157 6.0357 3.18635 6.29288 3.29253 6.51763C3.39871 6.74237 3.588 6.9171 3.8205 7.005C3.9555 7.0825 4.1065 7.128 4.2615 7.1385C4.3815 7.1435 4.5015 7.1285 4.6155 7.0925C4.80582 7.02829 4.97135 6.90631 5.08903 6.74354C5.20672 6.58078 5.27068 6.38535 5.272 6.1845V1.877C5.272 1.82935 5.2909 1.78364 5.32455 1.7499C5.35819 1.71616 5.40385 1.69713 5.4515 1.697H6.159C6.20497 1.69706 6.24918 1.7147 6.28255 1.74631C6.31593 1.77792 6.33595 1.8211 6.3385 1.867C6.36429 2.08761 6.43436 2.30075 6.54451 2.49363C6.65465 2.68652 6.80261 2.85517 6.9795 2.9895C7.21855 3.16894 7.50246 3.27898 7.8 3.3075C7.84457 3.31131 7.88624 3.33114 7.91731 3.36331C7.94839 3.39549 7.96675 3.43783 7.969 3.4825L7.9695 3.8565Z" fill="black"/>
</svg>
