<svg width="12" height="12" viewBox="0 0 12 12" fill="none" xmlns="http://www.w3.org/2000/svg">
<circle cx="5.76" cy="5.76" r="5.76" fill="white"/>
<path d="M6.7218 5.6598L5.3742 5.031C5.2566 4.9764 5.16 5.0376 5.16 5.1678V6.3522C5.16 6.4824 5.2566 6.5436 5.3742 6.489L6.7212 5.8602C6.8394 5.805 6.8394 5.715 6.7218 5.6598ZM5.76 0C2.5788 0 0 2.5788 0 5.76C0 8.9412 2.5788 11.52 5.76 11.52C8.9412 11.52 11.52 8.9412 11.52 5.76C11.52 2.5788 8.9412 0 5.76 0ZM5.76 8.1C2.8116 8.1 2.76 7.8342 2.76 5.76C2.76 3.6858 2.8116 3.42 5.76 3.42C8.7084 3.42 8.76 3.6858 8.76 5.76C8.76 7.8342 8.7084 8.1 5.76 8.1Z" fill="#FF0000"/>
</svg>
